<svg width="179" height="105" viewBox="0 0 179 105" fill="none" xmlns="http://www.w3.org/2000/svg">
<path d="M5.166 42.9777C6.558 42.9777 7.752 43.2297 8.748 43.7337C9.744 44.2377 10.506 44.9637 11.034 45.9117C11.562 46.8597 11.826 47.9877 11.826 49.2957C11.826 50.5917 11.562 51.7137 11.034 52.6617C10.506 53.5977 9.744 54.3177 8.748 54.8217C7.752 55.3137 6.558 55.5597 5.166 55.5597H1.44V42.9777H5.166ZM5.166 54.5157C6.918 54.5157 8.25 54.0597 9.162 53.1477C10.086 52.2237 10.548 50.9397 10.548 49.2957C10.548 47.6397 10.086 46.3497 9.162 45.4257C8.25 44.4897 6.918 44.0217 5.166 44.0217H2.7V54.5157H5.166ZM23.041 50.1417C23.041 50.5737 23.029 50.9037 23.005 51.1317H14.851C14.887 51.8757 15.067 52.5117 15.391 53.0397C15.715 53.5677 16.141 53.9697 16.669 54.2457C17.197 54.5097 17.773 54.6417 18.397 54.6417C19.213 54.6417 19.897 54.4437 20.449 54.0477C21.013 53.6517 21.385 53.1177 21.565 52.4457H22.897C22.657 53.4057 22.141 54.1917 21.349 54.8037C20.569 55.4037 19.585 55.7037 18.397 55.7037C17.473 55.7037 16.645 55.4997 15.913 55.0917C15.181 54.6717 14.605 54.0837 14.185 53.3277C13.777 52.5597 13.573 51.6657 13.573 50.6457C13.573 49.6257 13.777 48.7317 14.185 47.9637C14.593 47.1957 15.163 46.6077 15.895 46.1997C16.627 45.7917 17.461 45.5877 18.397 45.5877C19.333 45.5877 20.149 45.7917 20.845 46.1997C21.553 46.6077 22.093 47.1597 22.465 47.8557C22.849 48.5397 23.041 49.3017 23.041 50.1417ZM21.763 50.1057C21.775 49.3737 21.625 48.7497 21.313 48.2337C21.013 47.7177 20.599 47.3277 20.071 47.0637C19.543 46.7997 18.967 46.6677 18.343 46.6677C17.407 46.6677 16.609 46.9677 15.949 47.5677C15.289 48.1677 14.923 49.0137 14.851 50.1057H21.763ZM37.0463 45.5517C38.1983 45.5517 39.1343 45.9177 39.8543 46.6497C40.5863 47.3697 40.9523 48.4197 40.9523 49.7997V55.5597H39.7103V49.9437C39.7103 48.8757 39.4523 48.0597 38.9363 47.4957C38.4203 46.9317 37.7183 46.6497 36.8303 46.6497C35.9063 46.6497 35.1683 46.9557 34.6163 47.5677C34.0643 48.1797 33.7883 49.0677 33.7883 50.2317V55.5597H32.5463V49.9437C32.5463 48.8757 32.2883 48.0597 31.7723 47.4957C31.2563 46.9317 30.5483 46.6497 29.6483 46.6497C28.7243 46.6497 27.9863 46.9557 27.4343 47.5677C26.8823 48.1797 26.6063 49.0677 26.6063 50.2317V55.5597H25.3463V45.7317H26.6063V47.4237C26.9183 46.8117 27.3623 46.3497 27.9383 46.0377C28.5143 45.7137 29.1563 45.5517 29.8643 45.5517C30.7163 45.5517 31.4603 45.7557 32.0963 46.1637C32.7443 46.5717 33.2123 47.1717 33.5003 47.9637C33.7643 47.1837 34.2143 46.5897 34.8503 46.1817C35.4983 45.7617 36.2303 45.5517 37.0463 45.5517ZM48.0525 55.7037C47.1285 55.7037 46.2945 55.4997 45.5505 55.0917C44.8185 54.6717 44.2365 54.0837 43.8045 53.3277C43.3845 52.5597 43.1745 51.6657 43.1745 50.6457C43.1745 49.6257 43.3905 48.7377 43.8225 47.9817C44.2545 47.2137 44.8425 46.6257 45.5865 46.2177C46.3305 45.7977 47.1645 45.5877 48.0885 45.5877C49.0125 45.5877 49.8465 45.7977 50.5905 46.2177C51.3465 46.6257 51.9345 47.2137 52.3545 47.9817C52.7865 48.7377 53.0025 49.6257 53.0025 50.6457C53.0025 51.6537 52.7865 52.5417 52.3545 53.3097C51.9225 54.0777 51.3285 54.6717 50.5725 55.0917C49.8165 55.4997 48.9765 55.7037 48.0525 55.7037ZM48.0525 54.6057C48.7005 54.6057 49.3005 54.4617 49.8525 54.1737C50.4045 53.8737 50.8485 53.4297 51.1845 52.8417C51.5325 52.2417 51.7065 51.5097 51.7065 50.6457C51.7065 49.7817 51.5385 49.0557 51.2025 48.4677C50.8665 47.8677 50.4225 47.4237 49.8705 47.1357C49.3185 46.8357 48.7185 46.6857 48.0705 46.6857C47.4225 46.6857 46.8225 46.8357 46.2705 47.1357C45.7185 47.4237 45.2745 47.8677 44.9385 48.4677C44.6145 49.0557 44.4525 49.7817 44.4525 50.6457C44.4525 51.5097 44.6145 52.2417 44.9385 52.8417C45.2745 53.4297 45.7125 53.8737 46.2525 54.1737C46.8045 54.4617 47.4045 54.6057 48.0525 54.6057ZM63.7308 54.3357L67.0428 45.7317H68.3748L64.4328 55.5597H63.0108L59.0688 45.7317H60.4188L63.7308 54.3357ZM70.7126 43.8777C70.4606 43.8777 70.2446 43.7877 70.0646 43.6077C69.8846 43.4277 69.7946 43.2057 69.7946 42.9417C69.7946 42.6777 69.8846 42.4617 70.0646 42.2937C70.2446 42.1137 70.4606 42.0237 70.7126 42.0237C70.9646 42.0237 71.1806 42.1137 71.3606 42.2937C71.5406 42.4617 71.6306 42.6777 71.6306 42.9417C71.6306 43.2057 71.5406 43.4277 71.3606 43.6077C71.1806 43.7877 70.9646 43.8777 70.7126 43.8777ZM71.3426 45.7317V55.5597H70.0826V45.7317H71.3426ZM73.6199 50.6277C73.6199 49.6197 73.8239 48.7377 74.2319 47.9817C74.6399 47.2137 75.1979 46.6257 75.9059 46.2177C76.6259 45.7977 77.4359 45.5877 78.3359 45.5877C79.1999 45.5877 79.9799 45.7977 80.6759 46.2177C81.3719 46.6377 81.8819 47.1837 82.2059 47.8557V42.2397H83.4659V55.5597H82.2059V53.3637C81.9059 54.0477 81.4139 54.6117 80.7299 55.0557C80.0459 55.4877 79.2419 55.7037 78.3179 55.7037C77.4179 55.7037 76.6079 55.4937 75.8879 55.0737C75.1799 54.6537 74.6219 54.0597 74.2139 53.2917C73.8179 52.5237 73.6199 51.6357 73.6199 50.6277ZM82.2059 50.6457C82.2059 49.8537 82.0439 49.1577 81.7199 48.5577C81.3959 47.9577 80.9519 47.4957 80.3879 47.1717C79.8359 46.8477 79.2239 46.6857 78.5519 46.6857C77.8559 46.6857 77.2319 46.8417 76.6799 47.1537C76.1279 47.4657 75.6899 47.9217 75.3659 48.5217C75.0539 49.1097 74.8979 49.8117 74.8979 50.6277C74.8979 51.4317 75.0539 52.1397 75.3659 52.7517C75.6899 53.3517 76.1279 53.8137 76.6799 54.1377C77.2319 54.4497 77.8559 54.6057 78.5519 54.6057C79.2239 54.6057 79.8359 54.4437 80.3879 54.1197C80.9519 53.7957 81.3959 53.3337 81.7199 52.7337C82.0439 52.1337 82.2059 51.4377 82.2059 50.6457ZM95.2343 50.1417C95.2343 50.5737 95.2223 50.9037 95.1983 51.1317H87.0443C87.0803 51.8757 87.2603 52.5117 87.5843 53.0397C87.9083 53.5677 88.3343 53.9697 88.8623 54.2457C89.3903 54.5097 89.9663 54.6417 90.5903 54.6417C91.4063 54.6417 92.0903 54.4437 92.6423 54.0477C93.2063 53.6517 93.5783 53.1177 93.7583 52.4457H95.0903C94.8503 53.4057 94.3343 54.1917 93.5423 54.8037C92.7623 55.4037 91.7783 55.7037 90.5903 55.7037C89.6663 55.7037 88.8383 55.4997 88.1063 55.0917C87.3743 54.6717 86.7983 54.0837 86.3783 53.3277C85.9703 52.5597 85.7663 51.6657 85.7663 50.6457C85.7663 49.6257 85.9703 48.7317 86.3783 47.9637C86.7863 47.1957 87.3563 46.6077 88.0883 46.1997C88.8203 45.7917 89.6543 45.5877 90.5903 45.5877C91.5263 45.5877 92.3423 45.7917 93.0383 46.1997C93.7463 46.6077 94.2863 47.1597 94.6583 47.8557C95.0423 48.5397 95.2343 49.3017 95.2343 50.1417ZM93.9563 50.1057C93.9683 49.3737 93.8183 48.7497 93.5063 48.2337C93.2063 47.7177 92.7923 47.3277 92.2643 47.0637C91.7363 46.7997 91.1603 46.6677 90.5363 46.6677C89.6003 46.6677 88.8023 46.9677 88.1423 47.5677C87.4823 48.1677 87.1163 49.0137 87.0443 50.1057H93.9563ZM101.842 55.7037C100.918 55.7037 100.084 55.4997 99.3396 55.0917C98.6076 54.6717 98.0256 54.0837 97.5936 53.3277C97.1736 52.5597 96.9636 51.6657 96.9636 50.6457C96.9636 49.6257 97.1796 48.7377 97.6116 47.9817C98.0436 47.2137 98.6316 46.6257 99.3756 46.2177C100.12 45.7977 100.954 45.5877 101.878 45.5877C102.802 45.5877 103.636 45.7977 104.38 46.2177C105.136 46.6257 105.724 47.2137 106.144 47.9817C106.576 48.7377 106.792 49.6257 106.792 50.6457C106.792 51.6537 106.576 52.5417 106.144 53.3097C105.712 54.0777 105.118 54.6717 104.362 55.0917C103.606 55.4997 102.766 55.7037 101.842 55.7037ZM101.842 54.6057C102.49 54.6057 103.09 54.4617 103.642 54.1737C104.194 53.8737 104.638 53.4297 104.974 52.8417C105.322 52.2417 105.496 51.5097 105.496 50.6457C105.496 49.7817 105.328 49.0557 104.992 48.4677C104.656 47.8677 104.212 47.4237 103.66 47.1357C103.108 46.8357 102.508 46.6857 101.86 46.6857C101.212 46.6857 100.612 46.8357 100.06 47.1357C99.5076 47.4237 99.0636 47.8677 98.7276 48.4677C98.4036 49.0557 98.2416 49.7817 98.2416 50.6457C98.2416 51.5097 98.4036 52.2417 98.7276 52.8417C99.0636 53.4297 99.5016 53.8737 100.042 54.1737C100.594 54.4617 101.194 54.6057 101.842 54.6057Z" fill="#0AC05E"/>
<path d="M134.811 49.0941C136.52 50.0804 136.52 52.546 134.811 53.5322L124.026 59.7594C122.317 60.7456 120.182 59.5128 120.182 57.5404L120.182 45.086C120.182 43.1135 122.317 41.8807 124.026 42.867L134.811 49.0941Z" fill="#0AC05E"/>
<mask id="path-3-inside-1_13_3521" fill="white">
<path d="M78.6297 30.8174C83.5574 19.8939 92.0843 10.9921 102.786 5.59928C113.487 0.206474 125.715 -1.35072 137.427 1.18786C149.139 3.72644 159.624 10.207 167.133 19.5469C174.641 28.8868 178.716 40.5203 178.679 52.5038C178.641 64.4873 174.492 76.095 166.926 85.3876C159.359 94.6801 148.833 101.095 137.106 103.56C125.378 106.025 113.16 104.391 102.493 98.9309C91.8253 93.471 83.3545 84.5158 78.4955 73.5615L79.2291 73.2361C84.0136 84.0224 92.3545 92.8403 102.858 98.2164C113.362 103.593 125.393 105.202 136.94 102.774C148.488 100.347 158.853 94.0309 166.303 84.8808C173.754 75.7308 177.839 64.3011 177.876 52.5013C177.913 40.7016 173.9 29.2465 166.507 20.0498C159.114 10.8531 148.789 4.47187 137.257 1.97222C125.725 -0.527439 113.684 1.00587 103.147 6.31598C92.6095 11.6261 84.2134 20.3914 79.3613 31.1474L78.6297 30.8174Z"/>
</mask>
<path d="M78.6297 30.8174C83.5574 19.8939 92.0843 10.9921 102.786 5.59928C113.487 0.206474 125.715 -1.35072 137.427 1.18786C149.139 3.72644 159.624 10.207 167.133 19.5469C174.641 28.8868 178.716 40.5203 178.679 52.5038C178.641 64.4873 174.492 76.095 166.926 85.3876C159.359 94.6801 148.833 101.095 137.106 103.56C125.378 106.025 113.16 104.391 102.493 98.9309C91.8253 93.471 83.3545 84.5158 78.4955 73.5615L79.2291 73.2361C84.0136 84.0224 92.3545 92.8403 102.858 98.2164C113.362 103.593 125.393 105.202 136.94 102.774C148.488 100.347 158.853 94.0309 166.303 84.8808C173.754 75.7308 177.839 64.3011 177.876 52.5013C177.913 40.7016 173.9 29.2465 166.507 20.0498C159.114 10.8531 148.789 4.47187 137.257 1.97222C125.725 -0.527439 113.684 1.00587 103.147 6.31598C92.6095 11.6261 84.2134 20.3914 79.3613 31.1474L78.6297 30.8174Z" stroke="#0AC05E" stroke-width="2.56233" stroke-dasharray="5.12 5.12" mask="url(#path-3-inside-1_13_3521)"/>
</svg>
