<svg width="62" height="70" viewBox="0 0 62 70" fill="none" xmlns="http://www.w3.org/2000/svg">
<path d="M56.8923 27.6063L33.6966 4.41052C31.2986 2.01248 27.3964 2.01234 24.9982 4.41052C22.8425 6.56616 22.6568 9.85383 24.2488 12.2014L24.2165 12.3629C22.5441 20.7253 18.4728 28.3328 12.4423 34.3632L1.80299 45.0025C-0.600793 47.4064 -0.601202 51.2969 1.80299 53.7008L7.60177 59.4996C10.0054 61.9034 13.8962 61.9035 16.3001 59.4996L17.7498 58.0499L27.8979 68.1979C30.3017 70.6018 34.1922 70.602 36.5961 68.1979C38.9943 65.7999 38.9943 61.8978 36.5961 59.4997L32.2469 55.1506L33.6967 53.7008C36.1005 51.2972 36.1007 47.4067 33.6967 45.0027L32.7115 44.0173C37.558 40.6241 43.0622 38.2618 48.9401 37.0861L49.1036 37.0534C51.5035 38.6737 54.7835 38.4132 56.8923 36.3044H56.8925C59.2903 33.9065 59.2903 30.0045 56.8923 27.6063ZM13.4007 56.6002C12.5995 57.4013 11.3023 57.4014 10.5012 56.6001L4.70238 50.8013C3.90108 49.9999 3.90108 48.7032 4.70238 47.9019L14.8503 37.7538L23.5486 46.4522C22.5558 47.445 14.418 55.5828 13.4007 56.6002ZM33.6966 62.399C34.4958 63.1983 34.4958 64.499 33.6966 65.2984C32.8973 66.0976 31.5964 66.0976 30.7972 65.2984L20.6491 55.1503L23.5486 52.2509L33.6966 62.399ZM26.448 49.3515C27.0643 48.7352 27.9869 47.7912 29.443 46.5476L30.7972 47.9019C31.5985 48.7032 31.5985 49.9999 30.7972 50.8013L29.3474 52.2511L26.448 49.3515ZM26.5351 43.64L17.6623 34.7672C22.4173 29.2768 25.8224 22.7956 27.6442 15.7546L45.5477 33.6582C38.5067 35.4798 32.0257 38.8849 26.5351 43.64ZM53.9925 33.4048C53.1912 34.206 51.8945 34.206 51.0932 33.4048L27.8976 10.2093C27.0963 9.40786 27.0963 8.11122 27.8976 7.30991C28.6989 6.5086 29.9959 6.5086 30.7972 7.30991L53.9925 30.5053C54.7918 31.3047 54.7918 32.6053 53.9925 33.4048Z" fill="#313131"/>
<path d="M16.2977 45.0027C15.4972 44.2021 14.1989 44.2021 13.3983 45.0027L10.4989 47.9021C9.69828 48.7027 9.69828 50.0009 10.4989 50.8015C11.2994 51.6021 12.5978 51.6021 13.3983 50.8015L16.2977 47.9021C17.0983 47.1015 17.0983 45.8033 16.2977 45.0027Z" fill="#313131"/>
<path d="M43.1049 0C41.9726 0 41.0547 0.917928 41.0547 2.05023V6.15069C41.0547 7.28299 41.9726 8.20092 43.1049 8.20092C44.2372 8.20092 45.1552 7.28299 45.1552 6.15069V2.05023C45.1552 0.917928 44.2372 0 43.1049 0Z" fill="#0AC05E"/>
<path d="M59.5101 16.4005H55.4096C54.2773 16.4005 53.3594 17.3184 53.3594 18.4507C53.3594 19.583 54.2773 20.501 55.4096 20.501H59.5101C60.6424 20.501 61.5603 19.583 61.5603 18.4507C61.5603 17.3184 60.6422 16.4005 59.5101 16.4005Z" fill="#0AC05E"/>
<path d="M56.8581 4.70081C56.0576 3.90019 54.7594 3.90019 53.9587 4.70081L49.8583 8.80127C49.0577 9.60189 49.0577 10.9 49.8583 11.7007C50.6588 12.5013 51.957 12.5014 52.7577 11.7007L56.8581 7.6002C57.6588 6.79958 57.6588 5.50157 56.8581 4.70081Z" fill="#0AC05E"/>
</svg>
