<svg width="70" height="55" viewBox="0 0 70 55" fill="none" xmlns="http://www.w3.org/2000/svg">
<path d="M67.9448 50.6354H63.8077V23.2726C63.8077 22.1394 62.8875 21.2208 61.7524 21.2208H50.4048C49.2697 21.2208 48.3496 22.1394 48.3496 23.2726V50.6354H42.7291V15.1435C42.7291 14.0103 41.809 13.0917 40.6739 13.0917H29.3262C28.1912 13.0917 27.271 14.0103 27.271 15.1435V50.6354H21.6506V21.1012C21.6506 19.9681 20.7304 19.0494 19.5954 19.0494H8.24755C7.11249 19.0494 6.19233 19.9681 6.19233 21.1012V50.6354H2.05522C0.920163 50.6354 0 51.554 0 52.6872C0 53.8203 0.920163 54.739 2.05522 54.739H67.9448C69.0798 54.739 70 53.8203 70 52.6872C70 51.554 69.0798 50.6354 67.9448 50.6354ZM10.3028 50.6354V23.153H17.5401V50.6354H10.3028ZM31.3813 50.6354V17.1953H38.6187V50.6354H31.3813ZM52.46 50.6354V25.3244H59.6974V50.6354H52.46Z" fill="#313131"/>
<path d="M68.4971 7.80756C68.5652 6.95004 68.0654 5.89706 66.9209 5.63074L60.2915 4.01939C59.19 3.75088 58.0808 4.42729 57.8132 5.52842C57.5456 6.62955 58.2211 7.73916 59.3223 8.00672L61.1973 8.46249L55.8821 11.7425L35.7285 0.268837C35.1491 -0.0612291 34.4449 -0.0889967 33.8417 0.194562L13.8087 9.59755L4.23214 3.62093C3.27094 3.02057 2.00525 3.31384 1.40517 4.27518C0.805226 5.23638 1.09822 6.50207 2.05956 7.10215L12.5834 13.67C13.1739 14.0386 13.9112 14.0826 14.5415 13.7868L34.6224 4.36108L54.9093 15.9107C55.4371 16.1875 56.1729 16.331 57.002 15.8736L63.4453 11.8973L63.0162 13.907C62.544 16.5802 66.3282 17.3394 67.0292 14.7641L68.4515 8.10343C68.4677 8.01014 68.4737 8.02327 68.4971 7.80756Z" fill="#0AC05E"/>
</svg>
