<svg width="70" height="74" viewBox="0 0 70 74" fill="none" xmlns="http://www.w3.org/2000/svg">
<path d="M63.5376 15.0364C59.9743 15.0364 57.0752 17.9354 57.0752 21.499V38.2624L55.8235 39.557C55.4954 38.798 55.0195 38.0895 54.3967 37.4766C51.8011 34.9224 47.6011 34.9455 45.0335 37.5288L35 47.6249L24.9663 37.5287C22.3992 34.9455 18.1989 34.922 15.6032 37.4764C14.9804 38.0892 14.5048 38.7978 14.1764 39.5569L12.9247 38.2623V21.4988C12.9247 17.9354 10.0257 15.0363 6.46229 15.0363C2.89885 15.0363 0 17.9354 0 21.4988V41.9499C0 44.0573 0.570391 46.128 1.64951 47.938L13.835 65.8521L12.44 73.9961H57.56L56.165 65.8523L68.3505 47.9382C69.4296 46.128 70 44.0573 70 41.9499V21.4988C70 17.9354 67.101 15.0364 63.5376 15.0364ZM32.9492 69.8945H17.3039L18.1571 64.9133L5.14309 45.788C4.46154 44.6247 4.10156 43.2989 4.10156 41.9499V21.4988C4.10156 20.1971 5.16059 19.1378 6.46242 19.1378C7.76426 19.1378 8.82328 20.197 8.82328 21.4988V39.9208L22.8184 54.3955L25.7668 51.5444L18.3252 43.8479C17.4754 42.847 17.5316 41.333 18.48 40.3999C19.4716 39.424 21.076 39.4332 22.057 40.4199L32.9492 51.3799V69.8945ZM65.8984 41.9499C65.8984 43.2988 65.5385 44.6245 64.8569 45.7879L51.8429 64.9133L52.6961 69.8945H37.0508V51.3799L47.9429 40.4199C48.9237 39.433 50.5282 39.4243 51.5199 40.3999C52.4683 41.333 52.5245 42.8469 51.6746 43.8479L44.233 51.5444L47.1815 54.3955L61.1767 39.921V21.4988C61.1767 20.1971 62.2357 19.1378 63.5376 19.1378C64.8394 19.1378 65.8984 20.1971 65.8984 21.4988V41.9499Z" fill="#313131"/>
<path d="M35 0L39.2658 12.0922L53.0701 12.0922L41.9022 19.5656L46.1679 31.6578L35 24.1844L23.8321 31.6578L28.0978 19.5656L16.9299 12.0922L30.7342 12.0922L35 0Z" fill="#0AC05E"/>
</svg>
