<svg width="136" height="23" viewBox="0 0 136 23" fill="none" xmlns="http://www.w3.org/2000/svg">
<path d="M120.342 13.7793C120.342 8.37568 121.812 4.59311 128.094 4.59311C134.376 4.59311 135.847 8.37568 135.847 13.7793C135.847 19.183 134.376 22.9656 128.094 22.9656C121.946 22.9656 120.342 19.183 120.342 13.7793ZM131.97 13.7793C131.97 9.99678 131.436 7.83531 128.228 7.83531C125.02 7.83531 124.485 9.99678 124.485 13.7793C124.485 17.5619 125.02 19.7234 128.228 19.7234C131.436 19.7234 131.97 17.4268 131.97 13.7793ZM13.01 22.2901C13.1437 22.4252 13.2774 22.5603 13.411 22.5603H14.8813C15.1487 22.5603 15.416 22.2901 15.416 22.0199V5.40366C15.416 5.13348 15.1487 4.8633 14.8813 4.8633H12.0744C11.8071 4.8633 11.5397 5.13348 11.5397 5.40366V18.5075C10.3368 19.183 8.86648 19.5883 7.52985 19.5883C5.65856 19.5883 4.72292 18.7777 4.72292 17.0215V5.40366C4.72292 5.13348 4.45559 4.8633 4.18826 4.8633H1.38133C1.11401 4.8633 0.84668 5.13348 0.84668 5.40366V17.2917C0.84668 20.669 2.45064 22.9656 6.86153 22.9656C8.86648 22.9656 10.8714 22.2901 12.4754 21.0743L13.01 22.2901ZM45.6239 10.1319C45.6239 6.75458 44.0199 4.45802 39.8764 4.45802C37.8714 4.45802 36.0001 5.13348 34.2625 6.21421C33.5942 5.13348 32.1239 4.45802 29.8516 4.45802C27.9803 4.45802 26.1091 5.13348 24.6388 6.34931L24.1041 5.13348C23.9704 4.99839 23.8368 4.8633 23.7031 4.8633H22.2328C21.9655 4.8633 21.6982 5.13348 21.6982 5.40366V22.0199C21.6982 22.2901 21.9655 22.5603 22.2328 22.5603H25.1734C25.4407 22.5603 25.7081 22.2901 25.7081 22.0199V8.91605C26.7774 8.24059 28.114 7.83531 29.317 7.83531C30.9209 7.83531 31.8566 8.37568 31.8566 10.1319V22.0199C31.8566 22.2901 32.1239 22.5603 32.3912 22.5603H35.3318C35.5992 22.5603 35.8665 22.2901 35.8665 22.0199V8.91605C36.9358 8.24059 38.2724 7.83531 39.4754 7.83531C40.9457 7.83531 42.015 8.37568 42.015 10.1319V22.0199C42.015 22.2901 42.2823 22.5603 42.5497 22.5603H45.4902C45.7576 22.5603 46.0249 22.2901 46.0249 22.0199L45.6239 10.1319ZM54.5794 21.0743C56.1833 22.2901 58.1883 22.9656 60.1932 22.9656C65.2724 22.9656 67.1437 19.4532 67.1437 13.7793C67.1437 8.1055 65.2724 4.59311 60.1932 4.59311C58.5893 4.59311 56.8516 5.13348 55.515 5.94403V0.540366C55.515 0.270183 55.2477 0 54.9803 0H52.0397C51.7724 0 51.6388 0.270183 51.6388 0.540366V22.0199C51.6388 22.2901 51.9061 22.5603 52.1734 22.5603H53.6437C53.7774 22.5603 54.0447 22.4252 54.0447 22.2901L54.5794 21.0743ZM59.2576 19.5883C57.9209 19.5883 56.5843 19.183 55.515 18.5075V8.91605C56.718 8.24059 57.9209 7.83531 59.2576 7.83531C62.7328 7.83531 63.1338 10.5371 63.1338 13.7793C63.1338 17.0215 62.7328 19.5883 59.2576 19.5883ZM81.5794 7.9704C81.1784 7.9704 80.6437 7.83531 80.2427 7.83531C78.6388 7.83531 77.1685 8.1055 75.8318 8.91605V22.0199C75.8318 22.2901 75.5645 22.5603 75.2972 22.5603H72.3566C72.0893 22.5603 71.8219 22.2901 71.8219 22.0199V5.40366C71.8219 5.13348 72.0893 4.8633 72.3566 4.8633H73.8269C73.9605 4.8633 74.2279 4.99839 74.2279 5.13348L74.7625 6.34931C76.3665 5.13348 78.2378 4.45802 80.2427 4.45802C80.6437 4.45802 81.1784 4.45802 81.5794 4.59311C81.8467 4.59311 82.114 4.99839 82.114 5.26857V7.43004C82.114 7.70022 81.8467 7.9704 81.5794 7.9704ZM91.6041 14.4548C89.8665 14.725 88.7972 15.2654 88.7972 17.1566C88.7972 18.5075 89.3318 19.7234 91.4704 19.7234C92.8071 19.7234 94.1437 19.3181 95.213 18.5075V13.9144L91.6041 14.4548ZM96.2823 21.0743C94.812 22.2901 92.9407 22.9656 91.0695 22.9656C86.5249 22.9656 85.0546 20.1286 85.0546 17.2917C85.0546 13.5092 87.4605 11.8881 91.4704 11.4828L95.3467 11.2126V10.4021C95.3467 8.64586 94.5447 7.83531 91.8714 7.83531C90.2675 7.83531 88.6635 8.1055 87.0596 8.64586H86.9259C86.6586 8.64586 86.3912 8.37568 86.3912 8.1055V5.80894C86.3912 5.53876 86.5249 5.40366 86.7922 5.26857C88.5299 4.72821 90.4011 4.32293 92.1388 4.32293C97.8863 4.32293 99.2229 6.88967 99.2229 10.5371V21.7497C99.2229 22.0199 98.9556 22.2901 98.6883 22.2901H97.218C97.0843 22.2901 96.817 22.155 96.817 22.0199L96.2823 21.0743ZM116.064 18.9128H116.198C116.465 18.9128 116.733 19.183 116.733 19.4532V21.7497C116.733 22.0199 116.599 22.155 116.465 22.2901C114.995 22.8305 113.525 23.1007 111.921 22.9656C105.772 22.9656 103.901 19.183 103.901 13.7793C103.901 8.37568 105.772 4.59311 111.921 4.59311C113.391 4.59311 114.995 4.72821 116.332 5.26857C116.465 5.40366 116.599 5.53876 116.599 5.80894V8.1055C116.599 8.37568 116.332 8.64586 116.064 8.64586H115.931C114.728 8.24059 113.391 8.1055 112.055 8.1055C108.713 8.1055 107.644 10.4021 107.644 13.9144C107.644 17.4268 108.579 19.7234 112.055 19.7234C113.525 19.4532 114.862 19.3181 116.064 18.9128Z" fill="#313131"/>
</svg>
