<svg width="156" height="33" viewBox="0 0 156 33" fill="none" xmlns="http://www.w3.org/2000/svg">
<path fill-rule="evenodd" clip-rule="evenodd" d="M124.795 22.2089C125.023 21.5406 125.109 20.6979 125.109 19.303C125.109 17.9078 125.023 17.0942 124.795 16.3968C124.336 15.0019 123.277 14.3042 121.76 14.3042C120.242 14.3042 119.211 15.0307 118.753 16.3968C118.524 17.1524 118.438 18.0534 118.438 19.303C118.438 20.5817 118.524 21.4824 118.753 22.2089C119.211 23.575 120.242 24.3304 121.76 24.3304C123.277 24.3304 124.336 23.6038 124.795 22.2089ZM125.396 26.2776C125.224 26.2776 125.109 26.1614 125.109 25.987V24.6504H125.081C124.422 25.7543 123.248 26.5971 121.187 26.5971C118.811 26.5971 117.15 25.4637 116.463 23.2549C116.091 22.151 115.976 21.0467 115.976 19.303C115.976 17.5884 116.091 16.4838 116.463 15.3796C117.15 13.1708 118.811 12.0374 121.187 12.0374C123.248 12.0374 124.422 12.8513 125.081 13.9553H125.109V6.80652C125.109 6.6321 125.224 6.51562 125.396 6.51562H127.228C127.4 6.51562 127.514 6.6321 127.514 6.80652V25.987C127.514 26.1614 127.4 26.2776 127.228 26.2776H125.396ZM139.311 21.7732V20.2327C139.311 20.1165 139.254 20.0583 139.139 20.0583H136.391C134.014 20.0583 132.984 20.756 132.984 22.325C132.984 23.7493 134.014 24.505 135.847 24.505C137.994 24.505 139.311 23.4878 139.311 21.7732ZM139.655 26.2775C139.483 26.2775 139.368 26.1614 139.368 25.9869V24.7665H139.34C138.71 25.8125 137.364 26.5973 135.274 26.5973C132.669 26.5973 130.665 25.2315 130.665 22.4124C130.665 19.4773 132.669 18.1113 136.019 18.1113H139.139C139.254 18.1113 139.311 18.0533 139.311 17.9369V16.9197C139.311 15.0018 138.566 14.1879 136.019 14.1879C134.473 14.1879 133.499 14.5947 132.697 15.1762C132.554 15.2924 132.382 15.2924 132.296 15.1468L131.523 13.8102C131.438 13.6358 131.466 13.5196 131.581 13.4034C132.611 12.5898 134.215 12.0376 136.248 12.0376C140.142 12.0376 141.63 13.3452 141.63 16.7747V25.9869C141.63 26.1614 141.516 26.2775 141.344 26.2775H139.655ZM145.353 31.5086C145.181 31.5086 145.067 31.3924 145.067 31.218V29.5325C145.067 29.3581 145.181 29.2419 145.353 29.2419H145.869C146.985 29.2419 147.586 28.748 148.188 27.1493L148.646 25.8709L143.607 12.6476C143.549 12.4734 143.635 12.357 143.836 12.357H145.84C146.012 12.357 146.126 12.4443 146.183 12.6476L149.791 22.7032H149.848L153.313 12.6476C153.37 12.4443 153.485 12.357 153.656 12.357H155.603C155.775 12.357 155.889 12.4734 155.832 12.6476L150.421 27.3531C149.218 30.6367 148.159 31.5086 146.098 31.5086H145.353Z" fill="#313131"/>
<path fill-rule="evenodd" clip-rule="evenodd" d="M75.8344 12.4164C75.8344 10.2659 74.4315 8.92898 72.0264 8.92898H67.6746C67.5601 8.92898 67.5027 8.98721 67.5027 9.10341V15.7295C67.5027 15.8457 67.5601 15.9036 67.6746 15.9036H72.0264C74.4315 15.9036 75.8344 14.567 75.8344 12.4164ZM65.2409 26.2787C65.0693 26.2787 64.9545 26.1625 64.9545 25.988V6.80755C64.9545 6.6334 65.0693 6.51693 65.2409 6.51693H72.1696C75.9202 6.51693 78.3539 8.8419 78.3539 12.4164C78.3539 15.991 75.9202 18.3157 72.1696 18.3157H67.6746C67.5601 18.3157 67.5027 18.3739 67.5027 18.4901V25.988C67.5027 26.1625 67.3882 26.2787 67.2164 26.2787H65.2409ZM84.2816 26.4242C81.8763 26.4242 80.9316 25.2617 80.9316 22.7623V6.80774C80.9316 6.63332 81.046 6.51685 81.2179 6.51685H83.0503C83.2221 6.51685 83.3366 6.63332 83.3366 6.80774V22.617C83.3366 23.7794 83.7661 24.1571 84.7108 24.1571H85.255C85.4266 24.1571 85.5411 24.2733 85.5411 24.4478V26.1333C85.5411 26.3077 85.4266 26.4242 85.255 26.4242H84.2816ZM96.0209 21.7743V20.2339C96.0209 20.1177 95.9635 20.0594 95.849 20.0594H93.1006C90.724 20.0594 89.6932 20.7571 89.6932 22.3262C89.6932 23.7504 90.724 24.5061 92.5563 24.5061C94.7037 24.5061 96.0209 23.4889 96.0209 21.7743ZM96.3643 26.2787C96.1924 26.2787 96.0779 26.1625 96.0779 25.9881V24.7676H96.0493C95.4195 25.8136 94.0737 26.5984 91.9837 26.5984C89.3784 26.5984 87.3742 25.2327 87.3742 22.4135C87.3742 19.4785 89.3784 18.1124 92.7282 18.1124H95.849C95.9635 18.1124 96.0209 18.0545 96.0209 17.938V16.9208C96.0209 15.0029 95.2761 14.189 92.7282 14.189C91.1821 14.189 90.2087 14.5959 89.4068 15.1774C89.264 15.2936 89.0921 15.2936 89.006 15.148L88.2329 13.8113C88.1474 13.6369 88.1758 13.5207 88.2902 13.4045C89.321 12.5909 90.9245 12.0388 92.9571 12.0388C96.8511 12.0388 98.3398 13.3463 98.3398 16.7758V25.9881C98.3398 26.1625 98.2253 26.2787 98.0535 26.2787H96.3643ZM110.967 26.2787C110.795 26.2787 110.681 26.1625 110.681 25.9881V17.8507C110.681 15.6131 109.678 14.3053 107.617 14.3053C105.756 14.3053 104.468 15.6425 104.468 17.7057V25.9881C104.468 26.1625 104.353 26.2787 104.181 26.2787H102.349C102.177 26.2787 102.063 26.1625 102.063 25.9881V12.6489C102.063 12.4748 102.177 12.3583 102.349 12.3583H104.181C104.353 12.3583 104.468 12.4748 104.468 12.6489V13.9276H104.496C105.155 12.8525 106.472 12.0386 108.333 12.0386C111.311 12.0386 113.086 14.102 113.086 17.2697V25.9881C113.086 26.1625 112.971 26.2787 112.799 26.2787H110.967Z" fill="#313131"/>
<path fill-rule="evenodd" clip-rule="evenodd" d="M41.0611 13.4403C40.4568 10.6545 38.9689 8.02 36.5759 5.98204C30.7287 1.00181 22.4362 1.98682 17.7594 7.64424L17.7592 7.64452L17.7589 7.6448L0.772099 28.1933C-0.33001 29.5266 -0.244223 31.0096 0.978642 32.0512C2.20151 33.0928 3.6555 32.9209 4.75761 31.5878L14.9288 19.2838L21.698 11.0957L21.6993 11.0968C21.7146 11.0776 21.7291 11.0579 21.7447 11.0391C21.8373 10.927 21.9318 10.8189 22.0277 10.7132C22.0433 10.6963 22.0597 10.68 22.0753 10.6628C25.1794 7.30842 30.0627 7.24769 33.2709 9.98003C33.2709 9.98003 33.29 9.99223 33.3261 10.0125C37.0944 13.2678 36.8942 18.481 34.2452 21.6853C34.1528 21.7971 33.9304 22.0444 33.9146 22.0614C30.8107 25.4157 26.0012 25.4878 22.664 22.7117C21.9673 22.1099 21.4064 21.4413 20.9718 20.7305C20.4505 19.8784 19.2621 19.7924 18.628 20.5617L16.4494 23.2036C17.2024 24.4998 18.1892 25.6991 19.414 26.7424C25.2611 31.7223 33.5537 30.7373 38.2304 25.0802C38.2304 25.0802 41.9684 20.6804 41.0611 13.4403Z" fill="#313131"/>
<path fill-rule="evenodd" clip-rule="evenodd" d="M41.0697 13.442L51.2411 1.13823C52.3432 -0.195079 53.7969 -0.366734 55.0198 0.674568C56.2427 1.71615 56.3287 3.19948 55.2266 4.53252L38.2305 25.0796C33.5538 30.737 25.261 31.7217 19.4138 26.7418C18.1893 25.6988 17.2025 24.4992 16.4493 23.2033L18.6278 20.5611C19.2622 19.7921 20.4506 19.8781 20.9719 20.7302C21.4066 21.4407 21.9759 22.1115 22.6726 22.7133C25.9841 25.4786 30.8054 25.4179 33.9095 22.0636C33.9136 22.0591 34.1721 21.7693 34.2401 21.6873L41.0697 13.442Z" fill="#313131"/>
</svg>
