<svg width="120" height="26" viewBox="0 0 120 26" fill="none" xmlns="http://www.w3.org/2000/svg">
<path d="M11.6685 8.69545C11.5143 8.54128 11.3293 8.41794 11.1443 8.32543C11.8535 7.46206 12.2235 6.35201 12.2235 5.21112C12.2235 3.70022 11.5451 2.28182 10.3734 1.32594C9.44838 0.555076 8.27665 0.185059 6.73492 0.185059H0.321289V5.21112V7.43123V10.2064V13.074V18.7476H7.53662C9.2942 18.7476 10.6201 18.3467 11.6376 17.4834C12.9635 16.4041 13.7344 14.8007 13.7344 13.1048C13.7652 11.3781 12.9944 9.77467 11.6685 8.69545ZM3.5281 3.17603H6.14906C7.62913 3.17603 8.12248 3.48438 8.39999 3.82356C8.73918 4.19358 8.95502 4.68693 8.95502 5.21112C8.95502 5.73531 8.77001 6.19783 8.39999 6.59869C8.09165 6.93787 7.62913 7.24622 6.14906 7.24622H3.5281V3.17603ZM9.72589 14.8932C9.2942 15.3249 8.64667 15.7258 6.95076 15.7258H3.5281V10.268H6.9816C8.67751 10.268 9.2942 10.6689 9.72589 11.1006C10.2192 11.6248 10.4968 12.3031 10.4968 12.9815C10.4968 13.6907 10.2192 14.369 9.72589 14.8932Z" fill="#313131"/>
<path d="M27.2092 6.07446H24.1874V18.7475H27.2092V6.07446Z" fill="#313131"/>
<path d="M25.6675 0.154175C24.6192 0.154175 23.7866 0.986713 23.7866 2.06593C23.7866 3.11431 24.6192 3.94685 25.6675 3.94685C26.7468 3.94685 27.5793 3.11431 27.5793 2.06593C27.5793 1.01755 26.7159 0.154175 25.6675 0.154175Z" fill="#313131"/>
<path d="M38.5873 6.90698C37.5697 6.19778 36.398 5.82776 35.0721 5.82776C33.9312 5.82776 32.852 6.10527 31.9578 6.62946C29.9535 7.80118 28.7202 10.0213 28.7202 12.3956C28.7202 14.8007 29.9227 16.9591 31.9578 18.1308C32.852 18.655 34.0237 18.9634 35.1338 18.9634C36.398 18.9634 37.5389 18.6242 38.4948 17.9458V18.0383C38.4948 19.4259 38.3098 20.3509 37.8781 20.9985C37.323 21.831 36.398 22.2627 35.1646 22.2627C33.222 22.2627 32.1736 21.2143 31.4028 20.2276L31.2178 19.9809L29.0285 22.016L29.1518 22.201C30.0152 23.5577 32.1428 25.1303 35.288 25.1303C37.7239 25.1303 39.7282 23.9894 40.7765 21.9852C41.3007 20.9676 41.5166 19.7034 41.5166 17.8841V6.07444H38.5873V6.90698ZM38.4948 14.5848C37.7547 15.5407 36.6139 16.1266 35.4421 16.1266C33.3454 16.1266 31.7111 14.4923 31.7111 12.4264C31.7111 10.2988 33.2529 8.72623 35.3188 8.72623C36.5213 8.72623 37.7239 9.31209 38.4948 10.268V14.5848Z" fill="#313131"/>
<path d="M49.5028 5.82777C48.0536 5.82777 46.9435 6.35196 46.2343 6.84532V0.154175H43.2125V18.7475H46.2343V10.268C46.851 9.55877 47.8994 8.72624 49.4411 8.72624C50.3354 8.72624 51.1987 9.12709 51.7229 9.80545C52.0621 10.2371 52.3704 10.823 52.3704 12.4264V18.7475H55.3923V12.5497C55.3923 10.5146 55.0222 9.18876 54.1589 8.0787C53.018 6.66031 51.3529 5.82777 49.5028 5.82777Z" fill="#313131"/>
<path d="M75.0956 6.62946C74.2014 6.10527 73.1222 5.82776 71.9813 5.82776C70.6554 5.82776 69.4837 6.19778 68.4661 6.90698V6.10527H65.5368V24.9453H68.5586V17.9767C69.5145 18.655 70.6554 18.9942 71.9196 18.9942C73.0296 18.9942 74.2322 18.6859 75.0956 18.1617C77.1307 16.9591 78.3332 14.8315 78.3332 12.4264C78.3641 10.0521 77.0998 7.83202 75.0956 6.62946ZM71.6112 16.1266C70.4704 16.1266 69.3295 15.5407 68.5586 14.5848V10.2371C69.3295 9.28125 70.5012 8.69539 71.7346 8.69539C73.8005 8.69539 75.3423 10.2988 75.3423 12.3956C75.3423 14.4923 73.708 16.1266 71.6112 16.1266Z" fill="#313131"/>
<path d="M85.8262 5.82776C82.2494 5.82776 79.6592 8.60289 79.6592 12.4264C79.6592 16.1882 82.4652 19.025 86.1962 19.025C89.3414 19.025 90.9448 17.36 91.4998 16.6508L91.654 16.4349L89.6497 14.554L89.4647 14.7698C88.7863 15.5407 87.8305 16.3116 86.1962 16.3116C84.377 16.3116 82.8661 14.9857 82.5885 13.2281H91.839L91.8698 12.9814C91.9006 12.7347 91.9006 12.5497 91.9006 12.4264C91.9006 8.66456 89.2797 5.82776 85.8262 5.82776ZM82.8969 10.5763C83.3902 9.34292 84.562 8.51038 85.9187 8.51038C87.1213 8.51038 88.293 9.37376 88.7247 10.5763H82.8969Z" fill="#313131"/>
<path d="M103.032 6.90698C102.014 6.19778 100.843 5.82776 99.5167 5.82776C98.3758 5.82776 97.2966 6.10527 96.4024 6.62946C94.3981 7.80118 93.1647 10.0213 93.1647 12.3956C93.1647 14.8007 94.3673 16.9591 96.4024 18.1308C97.2966 18.655 98.4683 18.9634 99.5784 18.9634C100.843 18.9634 102.045 18.5933 103.032 17.915V18.7167H105.961V6.07444H103.032V6.90698ZM102.939 14.5848C102.199 15.5407 101.058 16.1266 99.8867 16.1266C97.7899 16.1266 96.1557 14.4923 96.1557 12.4264C96.1557 10.2988 97.6974 8.72623 99.7634 8.72623C100.966 8.72623 102.168 9.31209 102.939 10.268V14.5848Z" fill="#313131"/>
<path d="M119.59 0H116.568V18.7475H119.59V0Z" fill="#313131"/>
<path d="M63.8409 15.9724C63.4401 16.0957 62.7617 16.1574 62.33 16.1574C61.59 16.1574 60.85 15.8799 60.5108 15.479C60.2024 15.109 60.1408 14.5232 60.1408 13.7831V8.78791H63.8409V6.07445H60.1408V0.154175H57.119V13.5981C57.119 15.2632 57.489 16.4966 58.2598 17.3291C59.2157 18.4083 60.5724 18.9634 62.2375 18.9634C62.7617 18.9634 63.3476 18.9017 63.8409 18.8092V15.9724Z" fill="#313131"/>
<path d="M22.5839 5.95146C22.1831 5.85896 21.7514 5.82812 21.3197 5.82812C19.8705 5.82812 18.7604 6.35232 18.0512 6.84567V6.0748H15.0294V18.7479H18.0512V10.2683C18.6679 9.55913 19.7163 8.72659 21.258 8.72659C21.7206 8.72659 22.1831 8.84993 22.6148 9.03494L22.5839 5.95146Z" fill="#313131"/>
<path d="M115.212 5.95146C114.811 5.85896 114.379 5.82812 113.947 5.82812C112.498 5.82812 111.388 6.35232 110.679 6.84567V6.0748H107.657V18.7479H110.679V10.2683C111.296 9.55913 112.344 8.72659 113.886 8.72659C114.348 8.72659 114.811 8.84993 115.242 9.03494L115.212 5.95146Z" fill="#313131"/>
</svg>
