<svg width="150" height="21" viewBox="0 0 150 21" fill="none" xmlns="http://www.w3.org/2000/svg">
<path d="M61.5625 0H66.242V19.6634H61.5625V0Z" fill="#313131"/>
<path d="M70.4182 8.40089H68.1589V5.37199H70.4182C70.4182 1.26651 71.8514 0 75.8473 0C76.5876 0 77.3592 0.0545851 78.1029 0.0823289V3.38731C77.6644 3.33047 77.253 3.30464 76.8379 3.30464C75.7645 3.30464 75.1031 3.44212 75.1031 4.73615V5.37199H77.911V8.40089H75.1031V19.6634H70.4182V8.40089Z" fill="#313131"/>
<path d="M91.0244 14.9527C91.0244 15.6692 91.3254 16.1902 91.7955 16.5511C92.234 16.883 92.8685 17.0479 93.53 17.0479C94.4382 17.0479 95.7309 16.6604 95.7309 15.5322C95.7309 14.4325 94.2709 14.209 93.448 14.0136C90.4994 13.2741 86.8108 13.1916 86.8108 9.33488C86.8108 5.89287 90.5264 4.95703 93.3379 4.95703C96.4751 4.95703 99.7524 5.86727 99.9164 9.58186H95.5939C95.5939 8.97838 95.3746 8.59279 94.9868 8.34434C94.603 8.09578 94.0786 7.98604 93.4989 7.98604C92.7314 7.98604 91.4901 8.06849 91.4901 9.06049C91.4901 10.408 94.6305 10.6586 96.78 11.1243C99.6702 11.704 100.414 13.7978 100.414 14.9804C100.414 18.81 96.7799 20.0746 93.5573 20.0746C90.1705 20.0746 86.7012 18.9466 86.5603 14.9527H91.0244Z" fill="#313131"/>
<path d="M102.099 0H106.782V7.32442H106.837C107.553 5.86732 109.48 4.95708 111.187 4.95708C115.953 4.95708 116.337 8.42638 116.337 10.4937V19.6634H111.657V12.751C111.657 10.7952 111.877 8.8105 109.315 8.8105C107.553 8.8105 106.782 10.3002 106.782 11.8685V19.6634H102.099V0Z" fill="#313131"/>
<path d="M122.65 13.6607C122.733 15.615 123.864 16.9108 125.849 16.9108C126.973 16.9108 128.077 16.3826 128.516 15.3402H132.898C132.044 18.6453 128.986 20.0746 125.791 20.0746C121.139 20.0746 117.967 17.2672 117.967 12.475C117.967 8.09578 121.467 4.95703 125.681 4.95703C130.803 4.95703 133.364 8.81046 133.144 13.6607H122.65ZM128.462 11.0423C128.379 9.44472 127.251 8.12454 125.681 8.12454C124.029 8.12454 122.928 9.30905 122.65 11.0423H128.462Z" fill="#313131"/>
<path d="M135.056 5.37167H139.602V7.87435H139.657C140.346 6.06075 141.943 5.0957 143.952 5.0957C144.312 5.0957 144.696 5.1213 145.056 5.20352V9.47377C144.449 9.30889 143.898 9.19747 143.263 9.19747C140.953 9.19747 139.739 10.7949 139.739 12.5853V19.6631H135.056V5.37167Z" fill="#313131"/>
<path d="M80.0955 5.37245H84.7786V19.6639H80.0955V5.37245ZM84.7619 0.0742188H80.092V3.38777H84.7619V0.0742188Z" fill="#313131"/>
<path d="M149.321 19.6531H144.652V16.3379H149.321V19.6531Z" fill="#313131"/>
<path d="M21.7426 13.6607C21.8248 15.615 22.9561 16.9108 24.9379 16.9108C26.069 16.9108 27.1695 16.3826 27.6085 15.3402H31.9861C31.136 18.6453 28.0781 20.0746 24.8831 20.0746C20.2306 20.0746 17.0632 17.2672 17.0632 12.475C17.0632 8.09578 20.5597 4.95703 24.7732 4.95703C29.8952 4.95703 32.456 8.81046 32.2364 13.6607H21.7426ZM27.5535 11.0423C27.4712 9.44472 26.3435 8.12454 24.7732 8.12454C23.1206 8.12454 22.0202 9.30905 21.7426 11.0423H27.5535Z" fill="#313131"/>
<path d="M43.176 19.6634C43.0112 19.2212 42.9565 18.7794 42.9017 18.3125C41.6881 19.5811 39.8985 20.0746 38.1947 20.0746C35.4656 20.0746 33.3196 18.6966 33.3196 15.7518C33.3196 11.097 38.3831 11.4592 41.6366 10.7951C42.432 10.6309 42.8742 10.355 42.8742 9.47393C42.8742 8.40084 41.5784 7.98604 40.615 7.98604C39.3226 7.98604 38.4965 8.5637 38.2733 9.77539H33.8955C33.9776 7.9018 34.8589 6.68999 36.1273 5.94937C37.3957 5.233 39.0448 4.95703 40.6699 4.95703C44.0604 4.95703 47.3343 5.69934 47.3343 9.7481V19.6634H43.176ZM39.9566 17.1847C42.1851 17.1847 42.929 15.9163 42.8194 12.9708C42.1578 13.3836 40.9475 13.466 39.9291 13.7426C38.8801 13.9896 37.9992 14.4325 37.9992 15.5596C37.9992 16.715 38.9078 17.1847 39.9566 17.1847Z" fill="#313131"/>
<path d="M49.8069 5.37167H54.3528V7.87435H54.4041C55.0934 6.06075 56.691 5.0957 58.7001 5.0957C59.0598 5.0957 59.4439 5.1213 59.8036 5.20352V9.47377C59.1972 9.30889 58.6452 9.19747 58.0142 9.19747C55.7 9.19747 54.4866 10.7949 54.4866 12.5853V19.6631H49.8069V5.37167Z" fill="#313131"/>
<path d="M0.84668 0.0908203H9.99761C13.7084 0.0908203 17.197 1.79344 17.197 6.51163C17.197 11.4509 14.3791 13.3774 9.99761 13.3774H6.0378V20.0194H0.84668V0.0908203ZM6.0378 9.35544H9.21572C10.835 9.35544 12.006 8.68663 12.006 6.87118C12.006 5.00177 10.8071 4.25138 9.21572 4.25138H6.0378V9.35544Z" fill="#313131"/>
<path d="M149.254 19.7184H144.557V16.3838H149.254V19.7184Z" fill="#313131"/>
</svg>
